<svg width="62" height="100" viewBox="0 0 62 100" fill="none" xmlns="http://www.w3.org/2000/svg">
<g filter="url(#filter0_d)">
<path fill-rule="evenodd" clip-rule="evenodd" d="M31 4.76239C18.4012 4.76239 8 15.5959 8 29.198C8 42.8002 18.4012 53.6337 31 53.6337C43.5988 53.6337 54 42.8002 54 29.198C54 15.5959 43.5988 4.76239 31 4.76239ZM4 29.198C4 13.6001 15.9846 0.76239 31 0.76239C46.0154 0.76239 58 13.6001 58 29.198C58 44.7959 46.0154 57.6337 31 57.6337C15.9846 57.6337 4 44.7959 4 29.198Z" fill="#dddddd"/>
<path fill-rule="evenodd" clip-rule="evenodd" d="M31 6.28711C32.1046 6.28711 33 7.18254 33 8.28711V22.7921C33 23.8966 32.1046 24.7921 31 24.7921C29.8954 24.7921 29 23.8966 29 22.7921V8.28711C29 7.18254 29.8954 6.28711 31 6.28711Z" fill="#dddddd"/>
<path fill-rule="evenodd" clip-rule="evenodd" d="M19.5321 76.7144C20.3782 76.0044 21.6398 76.1148 22.3498 76.9609L31.3488 87.6856C32.0588 88.5317 31.9484 89.7932 31.1023 90.5032C30.2561 91.2132 28.9946 91.1029 28.2846 90.2567L19.2856 79.5321C18.5756 78.6859 18.6859 77.4244 19.5321 76.7144Z" fill="#dddddd"/>
<path fill-rule="evenodd" clip-rule="evenodd" d="M30.4673 90.504C29.6208 89.7944 29.5101 88.5332 30.2201 87.6871L39.2192 76.9624C39.9292 76.1163 41.191 76.0056 42.0375 76.7152C42.884 77.4248 42.9946 78.686 42.2846 79.5321L33.2856 90.2567C32.5756 91.1029 31.3138 91.2136 30.4673 90.504Z" fill="#dddddd"/>
<path fill-rule="evenodd" clip-rule="evenodd" d="M31 62C32.1046 62 33 62.8954 33 64L33 89.1351C33 90.2397 32.1046 91.1351 31 91.1351C29.8954 91.1351 29 90.2397 29 89.1351L29 64C29 62.8954 29.8954 62 31 62Z" fill="#dddddd"/>
</g>
<defs>
<filter id="filter0_d" x="0" y="0.76239" width="62" height="98.3727" filterUnits="userSpaceOnUse" color-interpolation-filters="sRGB">
<feFlood flood-opacity="0" result="BackgroundImageFix"/>
<feColorMatrix in="SourceAlpha" type="matrix" values="0 0 0 0 0 0 0 0 0 0 0 0 0 0 0 0 0 0 127 0"/>
<feOffset dy="4"/>
<feGaussianBlur stdDeviation="2"/>
<feColorMatrix type="matrix" values="0 0 0 0 0 0 0 0 0 0 0 0 0 0 0 0 0 0 0.25 0"/>
<feBlend mode="normal" in2="BackgroundImageFix" result="effect1_dropShadow"/>
<feBlend mode="normal" in="SourceGraphic" in2="effect1_dropShadow" result="shape"/>
</filter>
</defs>
</svg>
