<svg width="400" height="349" viewBox="0 0 800 694" fill="none" xmlns="http://www.w3.org/2000/svg">
<path d="M475.645 419.468C475.921 418.989 475.757 418.378 475.279 418.102C474.801 417.826 474.189 417.989 473.913 418.468L475.645 419.468ZM399.596 547.189C399.32 547.668 399.483 548.279 399.962 548.555C400.44 548.831 401.052 548.668 401.328 548.189L399.596 547.189ZM473.382 419.622C473.935 419.623 474.384 419.177 474.385 418.625C474.387 418.072 473.94 417.623 473.388 417.622L473.382 419.622ZM324.151 417.2C323.598 417.199 323.149 417.645 323.148 418.197C323.146 418.75 323.593 419.199 324.145 419.2L324.151 417.2ZM325.345 417.121C325.068 416.643 324.456 416.481 323.978 416.759C323.501 417.036 323.339 417.648 323.616 418.126L325.345 417.121ZM398.6 547.158C398.877 547.636 399.49 547.798 399.967 547.521C400.445 547.243 400.607 546.631 400.329 546.154L398.6 547.158ZM493.889 421.876C494.214 421.43 494.115 420.804 493.668 420.48C493.221 420.155 492.596 420.254 492.271 420.701L493.889 421.876ZM388.84 563.062C388.515 563.509 388.614 564.134 389.061 564.459C389.508 564.783 390.133 564.684 390.458 564.238L388.84 563.062ZM491.617 421.8C492.167 421.857 492.659 421.459 492.716 420.91C492.774 420.36 492.376 419.868 491.826 419.811L491.617 421.8ZM316.983 401.434C316.434 401.376 315.942 401.774 315.884 402.324C315.827 402.873 316.225 403.365 316.774 403.423L316.983 401.434ZM318.175 401.494C317.95 400.99 317.359 400.763 316.854 400.987C316.35 401.212 316.123 401.803 316.348 402.308L318.175 401.494ZM387.854 562.914C388.079 563.419 388.67 563.646 389.175 563.421C389.679 563.197 389.906 562.605 389.682 562.101L387.854 562.914ZM516.655 426.677C517.025 426.267 516.991 425.634 516.581 425.265C516.171 424.895 515.538 424.928 515.169 425.339L516.655 426.677ZM374.833 581.198C374.463 581.608 374.496 582.24 374.907 582.61C375.317 582.98 375.95 582.946 376.319 582.536L374.833 581.198ZM514.394 426.367C514.934 426.482 515.465 426.137 515.58 425.597C515.695 425.056 515.35 424.525 514.81 424.411L514.394 426.367ZM309.853 380.846C309.313 380.731 308.782 381.076 308.667 381.616C308.552 382.156 308.897 382.687 309.437 382.802L309.853 380.846ZM311.022 381.042C310.851 380.517 310.287 380.229 309.762 380.4C309.236 380.57 308.949 381.135 309.12 381.66L311.022 381.042ZM373.87 580.94C374.041 581.466 374.605 581.753 375.13 581.582C375.655 581.412 375.943 580.848 375.772 580.322L373.87 580.94ZM542.798 434.063C543.208 433.694 543.241 433.062 542.872 432.651C542.502 432.241 541.87 432.208 541.459 432.577L542.798 434.063ZM355.842 599.708C355.431 600.078 355.398 600.71 355.768 601.12C356.137 601.531 356.769 601.564 357.18 601.194L355.842 599.708ZM540.572 433.522C541.097 433.692 541.661 433.405 541.832 432.88C542.003 432.354 541.715 431.79 541.19 431.619L540.572 433.522ZM303.859 354.506C303.334 354.335 302.77 354.623 302.599 355.148C302.429 355.673 302.716 356.238 303.241 356.408L303.859 354.506ZM304.989 354.836C304.874 354.296 304.343 353.951 303.803 354.066C303.262 354.18 302.917 354.711 303.032 355.252L304.989 354.836ZM354.915 599.343C355.03 599.883 355.561 600.228 356.101 600.113C356.642 599.998 356.987 599.467 356.872 598.927L354.915 599.343ZM572.427 445.571C572.874 445.246 572.973 444.621 572.648 444.174C572.323 443.727 571.698 443.628 571.251 443.953L572.427 445.571ZM330.922 618.563C330.475 618.887 330.376 619.512 330.7 619.959C331.025 620.406 331.65 620.505 332.097 620.181L330.922 618.563ZM570.261 444.802C570.765 445.027 571.356 444.8 571.581 444.296C571.806 443.791 571.579 443.2 571.074 442.975L570.261 444.802ZM299.942 322.26C299.437 322.035 298.846 322.262 298.622 322.766C298.397 323.271 298.624 323.862 299.128 324.087L299.942 322.26ZM301.011 322.718C300.953 322.169 300.461 321.77 299.912 321.828C299.363 321.886 298.964 322.378 299.022 322.927L301.011 322.718ZM330.045 618.092C330.103 618.641 330.595 619.04 331.144 618.982C331.694 618.924 332.092 618.432 332.034 617.883L330.045 618.092ZM604.142 463.522C604.62 463.245 604.784 462.634 604.508 462.156C604.232 461.677 603.62 461.513 603.142 461.79L604.142 463.522ZM299.454 637.124C298.975 637.4 298.811 638.012 299.088 638.49C299.364 638.968 299.975 639.132 300.454 638.856L299.454 637.124ZM602.055 462.533C602.533 462.809 603.145 462.645 603.421 462.167C603.697 461.689 603.533 461.077 603.055 460.801L602.055 462.533ZM299.644 285.627C299.166 285.351 298.554 285.515 298.278 285.993C298.002 286.471 298.166 287.083 298.644 287.359L299.644 285.627ZM300.64 286.207C300.64 285.655 300.193 285.207 299.64 285.207C299.088 285.207 298.64 285.655 298.64 286.207L300.64 286.207ZM298.64 636.555C298.64 637.107 299.088 637.555 299.64 637.555C300.193 637.555 300.64 637.107 300.64 636.555L298.64 636.555ZM639.013 488.879C639.517 488.654 639.744 488.063 639.52 487.558C639.295 487.054 638.704 486.827 638.199 487.051L639.013 488.879ZM260.236 655.332C259.731 655.556 259.504 656.147 259.729 656.652C259.953 657.157 260.545 657.383 261.049 657.159L260.236 655.332ZM637.024 487.678C637.471 488.002 638.096 487.903 638.421 487.456C638.746 487.01 638.646 486.384 638.2 486.06L637.024 487.678ZM303.789 243.096C303.342 242.771 302.717 242.87 302.392 243.317C302.068 243.764 302.167 244.389 302.613 244.714L303.789 243.096ZM304.692 243.789C304.75 243.24 304.352 242.747 303.802 242.69C303.253 242.632 302.761 243.03 302.703 243.58L304.692 243.789ZM259.496 654.67C259.438 655.219 259.837 655.711 260.386 655.769C260.935 655.826 261.427 655.428 261.485 654.879L259.496 654.67ZM676.686 522.453C677.211 522.282 677.498 521.718 677.328 521.193C677.157 520.667 676.593 520.38 676.068 520.551L676.686 522.453ZM211.972 671.344C211.447 671.515 211.159 672.079 211.33 672.604C211.501 673.13 212.065 673.417 212.59 673.246L211.972 671.344ZM674.816 521.049C675.226 521.419 675.858 521.386 676.228 520.975C676.597 520.565 676.564 519.933 676.154 519.563L674.816 521.049ZM313.847 193.34C313.436 192.97 312.804 193.004 312.434 193.414C312.065 193.824 312.098 194.457 312.508 194.826L313.847 193.34ZM314.64 194.134C314.755 193.594 314.41 193.063 313.87 192.948C313.33 192.833 312.799 193.178 312.684 193.718L314.64 194.134ZM211.32 670.597C211.206 671.137 211.55 671.668 212.091 671.783C212.631 671.898 213.162 671.553 213.277 671.013L211.32 670.597ZM716.438 566.339C716.978 566.224 717.323 565.693 717.208 565.153C717.093 564.613 716.562 564.268 716.022 564.383L716.438 566.339ZM153.744 683.899C153.203 684.014 152.858 684.545 152.973 685.085C153.088 685.625 153.619 685.97 154.159 685.855L153.744 683.899ZM714.704 564.744C715.074 565.155 715.706 565.188 716.117 564.818C716.527 564.449 716.56 563.816 716.191 563.406L714.704 564.744ZM331.899 136.607C331.53 136.196 330.897 136.163 330.487 136.533C330.076 136.902 330.043 137.535 330.413 137.945L331.899 136.607ZM332.566 137.487C332.737 136.962 332.45 136.398 331.924 136.227C331.399 136.057 330.835 136.344 330.664 136.869L332.566 137.487ZM153.191 683.075C153.021 683.6 153.308 684.164 153.833 684.335C154.359 684.506 154.923 684.218 155.094 683.693L153.191 683.075ZM757.627 622.878C758.177 622.82 758.575 622.328 758.517 621.779C758.46 621.23 757.968 620.831 757.418 620.889L757.627 622.878ZM84.0018 691.668C83.4526 691.726 83.0541 692.218 83.1118 692.767C83.1696 693.316 83.6616 693.715 84.2109 693.657L84.0018 691.668ZM756.191 620.999C756.516 621.446 757.141 621.545 757.588 621.22C758.035 620.896 758.134 620.27 757.809 619.824L756.191 620.999ZM359.804 72.0173C359.48 71.5705 358.854 71.4714 358.408 71.796C357.961 72.1207 357.862 72.746 358.186 73.1928L359.804 72.0173ZM360.637 73.3853C360.861 72.8808 360.634 72.2897 360.13 72.0651C359.625 71.8404 359.034 72.0673 358.81 72.5719L360.637 73.3853ZM83.3977 691.157C83.1731 691.661 83.4 692.253 83.9045 692.477C84.409 692.702 85.0001 692.475 85.2248 691.97L83.3977 691.157ZM799 694C799.552 694 800 693.552 800 693C800 692.448 799.552 692 799 692L799 694ZM1 692C0.447715 692 4.22416e-08 692.448 0 693C-4.22416e-08 693.552 0.447715 694 1 694L1 692ZM797.768 691.954C798.044 692.433 798.656 692.596 799.134 692.32C799.612 692.044 799.776 691.433 799.5 690.954L797.768 691.954ZM401.183 1.04901C400.907 0.570719 400.295 0.406843 399.817 0.682986C399.339 0.959128 399.175 1.57072 399.451 2.04901L401.183 1.04901ZM400.866 2.50056C401.142 2.02244 400.979 1.41075 400.501 1.1343C400.022 0.857862 399.411 1.02135 399.134 1.49947L400.866 2.50056ZM0.500342 690.954C0.223899 691.432 0.38739 692.044 0.86551 692.32C1.34363 692.596 1.95532 692.433 2.23176 691.955L0.500342 690.954ZM473.913 418.468L399.596 547.189L401.328 548.189L475.645 419.468L473.913 418.468ZM473.388 417.622L324.151 417.2L324.145 419.2L473.382 419.622L473.388 417.622ZM323.616 418.126L398.6 547.158L400.329 546.154L325.345 417.121L323.616 418.126ZM492.271 420.701L388.84 563.062L390.458 564.238L493.889 421.876L492.271 420.701ZM491.826 419.811L316.983 401.434L316.774 403.423L491.617 421.8L491.826 419.811ZM316.348 402.308L387.854 562.914L389.682 562.101L318.175 401.494L316.348 402.308ZM515.169 425.339L374.833 581.198L376.319 582.536L516.655 426.677L515.169 425.339ZM514.81 424.411L309.853 380.846L309.437 382.802L514.394 426.367L514.81 424.411ZM309.12 381.66L373.87 580.94L375.772 580.322L311.022 381.042L309.12 381.66ZM541.459 432.577L355.842 599.708L357.18 601.194L542.798 434.063L541.459 432.577ZM541.19 431.619L303.859 354.506L303.241 356.408L540.572 433.522L541.19 431.619ZM303.032 355.252L354.915 599.343L356.872 598.927L304.989 354.836L303.032 355.252ZM571.251 443.953L330.922 618.563L332.097 620.181L572.427 445.571L571.251 443.953ZM571.074 442.975L299.942 322.26L299.128 324.087L570.261 444.802L571.074 442.975ZM299.022 322.927L330.045 618.092L332.034 617.883L301.011 322.718L299.022 322.927ZM603.142 461.79L299.454 637.124L300.454 638.856L604.142 463.522L603.142 461.79ZM603.055 460.801L299.644 285.627L298.644 287.359L602.055 462.533L603.055 460.801ZM298.64 286.207L298.64 636.555L300.64 636.555L300.64 286.207L298.64 286.207ZM638.199 487.051L260.236 655.332L261.049 657.159L639.013 488.879L638.199 487.051ZM638.2 486.06L303.789 243.096L302.613 244.714L637.024 487.678L638.2 486.06ZM302.703 243.58L259.496 654.67L261.485 654.879L304.692 243.789L302.703 243.58ZM676.068 520.551L211.972 671.344L212.59 673.246L676.686 522.453L676.068 520.551ZM676.154 519.563L313.847 193.34L312.508 194.826L674.816 521.049L676.154 519.563ZM312.684 193.718L211.32 670.597L213.277 671.013L314.64 194.134L312.684 193.718ZM716.022 564.383L153.744 683.899L154.159 685.855L716.438 566.339L716.022 564.383ZM716.191 563.406L331.899 136.607L330.413 137.945L714.704 564.744L716.191 563.406ZM330.664 136.869L153.191 683.075L155.094 683.693L332.566 137.487L330.664 136.869ZM757.418 620.889L84.0018 691.668L84.2109 693.657L757.627 622.878L757.418 620.889ZM757.809 619.824L359.804 72.0173L358.186 73.1928L756.191 620.999L757.809 619.824ZM358.81 72.5719L83.3977 691.157L85.2248 691.97L360.637 73.3853L358.81 72.5719ZM799 692L1 692L1 694L799 694L799 692ZM799.5 690.954L401.183 1.04901L399.451 2.04901L797.768 691.954L799.5 690.954ZM399.134 1.49947L0.500342 690.954L2.23176 691.955L400.866 2.50056L399.134 1.49947Z" fill="black"/>
</svg>
